<svg xmlns="http://www.w3.org/2000/svg" viewBox="0 0 24 24" width="24" height="24">
  <defs>
    <linearGradient id="gradient" x1="0%" y1="0%" x2="100%" y2="100%">
      <stop offset="0%" stop-color="#3498db" />
      <stop offset="100%" stop-color="#2980b9" />
    </linearGradient>
  </defs>
  <rect width="24" height="24" rx="4" fill="#1a1e2e" />
  <path d="M8.4 6.8L3.6 12l4.8 5.2c.3.3.3.8 0 1.1-.3.3-.8.3-1.1 0l-5.2-5.8c-.3-.3-.3-.8 0-1.1l5.2-5.8c.3-.3.8-.3 1.1 0 .3.3.3.9 0 1.2zm7.2 0l4.8 5.2-4.8 5.2c-.3.3-.3.8 0 1.1.3.3.8.3 1.1 0l5.2-5.8c.3-.3.3-.8 0-1.1l-5.2-5.8c-.3-.3-.8-.3-1.1 0-.3.3-.3.9 0 1.2zm-3.5-2.5c-.4-.1-.8.2-.9.6l-3 14c-.1.4.2.8.6.9h.2c.3 0 .6-.2.7-.5l3-14c.1-.4-.2-.8-.6-1z" fill="url(#gradient)"/>
</svg> 